#define nst1_width 32
#define nst1_height 32
static char nst1_bits[] = {
 0x00,0x00,0x00,0x00,0x00,0x00,0x00,0x00,0x00,0x40,0x00,0x00,0x00,0xa0,0x00,
 0x00,0x00,0x10,0x01,0x00,0x00,0xc8,0x06,0x00,0x00,0x10,0x01,0x00,0x00,0xa0,
 0x00,0x00,0x00,0x40,0x00,0x00,0x00,0x00,0x00,0x00,0xf8,0xff,0xff,0x07,0x08,
 0x00,0x00,0x04,0x28,0xff,0x1f,0x04,0x08,0xff,0x1f,0x07,0x28,0xab,0x1a,0x04,
 0x08,0xff,0x1f,0x07,0x08,0x00,0x00,0x04,0xf8,0xff,0xff,0x07,0x08,0x00,0x00,
 0x04,0x08,0x00,0x00,0x04,0x08,0x00,0x00,0x04,0xf8,0xff,0xff,0x07,0x00,0x00,
 0x00,0x00,0x00,0x00,0x00,0x00,0x20,0xbd,0x6f,0x00,0x60,0x05,0x42,0x00,0xa0,
 0x3d,0x42,0x00,0x20,0x21,0x42,0x00,0x20,0x3d,0xe2,0x00,0x00,0x00,0x00,0x00,
 0x00,0x00,0x00,0x00,0x00,0x00,0x00,0x00 };
