#define sdd_width 32
#define sdd_height 32
static char sdd_bits[] = {
 0x00,0x00,0x00,0x00,0x00,0x00,0x00,0x00,0x00,0x40,0x00,0x00,0x00,0xa0,0x00,
 0x00,0x00,0x10,0x01,0x00,0x00,0xc8,0x06,0x00,0x00,0x10,0x01,0x00,0x00,0xa0,
 0x00,0x00,0x00,0x40,0x00,0x00,0x00,0x00,0x00,0x00,0xf8,0xff,0xff,0x07,0x08,
 0x00,0x00,0x04,0xe8,0x00,0x00,0x04,0x08,0x80,0xba,0x07,0xe8,0x00,0x00,0x04,
 0x08,0x80,0xba,0x07,0x08,0x00,0x00,0x04,0xf8,0xff,0xff,0x07,0x00,0x00,0x00,
 0x00,0x00,0xef,0x1c,0x00,0x00,0x21,0x25,0x00,0x00,0x2f,0x25,0x00,0x00,0x28,
 0x25,0x00,0x00,0xef,0x1c,0x00,0x00,0x00,0x00,0x00,0x00,0x00,0x00,0x00,0x00,
 0x00,0x00,0x00,0x00,0x00,0x00,0x00,0x00,0x00,0x00,0x00,0x00,0x00,0x00,0x00,
 0x00,0x00,0x00,0x00,0x00,0x00,0x00,0x00 };
